# xmcd
#
# Track frame offsets:
#	150
#	15022
#	37214
#	54802
#	71303
#	95639
#	110993
#	130320
#	148580
#	169425
#	188458
#	218107
#
# Disc length: 3083 seconds
#
# Revision: 0
# Processed by: cddbd v1.5.2PL0 Copyright (c) Steve Scherf et al.
# Submitted via: dBpowerAMP V4.0
#
DISCID=a70c090c
DTITLE=Ana Popovic  - Unconditional
DYEAR=2011
DGENRE=Blues Rock
TTITLE0=01. Fearless Blues
TTITLE1=02. Count Me In
TTITLE2=03. Unconditional
TTITLE3=04. Reset Rewind
TTITLE4=05. Slideshow
TTITLE5=06. Business As Usual
TTITLE6=07. Your Love Aint Real
TTITLE7=08. Work Song
TTITLE8=09. Summer Rain
TTITLE9=10. Voodoo Woman
TTITLE10=11. One Room Country Shack
TTITLE11=12. Soulful Dress
EXTD=Ana Popovic - Unconditional
EXTT0=
EXTT1=
EXTT2=
EXTT3=
EXTT4=
EXTT5=
EXTT6=
EXTT7=
EXTT8=
EXTT9=
EXTT10=
EXTT11=
PLAYORDER=
